<svg width="18" height="13" viewBox="0 0 18 13" fill="none" xmlns="http://www.w3.org/2000/svg">
<path fill-rule="evenodd" clip-rule="evenodd" d="M9 0.120605C4.90909 0.120605 1.41545 2.60861 0 6.12061C1.41545 9.63261 4.90909 12.1206 9 12.1206C13.0909 12.1206 16.5845 9.63261 18 6.12061C16.5845 2.60861 13.0909 0.120605 9 0.120605ZM9 10.1206C6.74182 10.1206 4.90909 8.32861 4.90909 6.12061C4.90909 3.91261 6.74182 2.12061 9 2.12061C11.2582 2.12061 13.0909 3.91261 13.0909 6.12061C13.0909 8.32861 11.2582 10.1206 9 10.1206ZM9 3.72061C7.64182 3.72061 6.54545 4.79261 6.54545 6.12061C6.54545 7.44861 7.64182 8.52061 9 8.52061C10.3582 8.52061 11.4545 7.44861 11.4545 6.12061C11.4545 4.79261 10.3582 3.72061 9 3.72061Z" fill="#84818A"/>
</svg>
