<svg width="20" height="20" viewBox="0 0 20 20" fill="none" xmlns="http://www.w3.org/2000/svg">
<circle cx="10" cy="10" r="10" fill="#B3B3B3"/>
<path d="M10 18C13.866 18 17 14.866 17 11C17 11 12.7729 12.19 10 12.19C7.22711 12.19 3 11 3 11C3 14.866 6.13401 18 10 18Z" fill="#262324" fill-opacity="0.3"/>
<path d="M10.0004 16C13.0932 16 15.6004 14.4777 15.6004 12.6C15.6004 12.6 12.2187 13.178 10.0004 13.178C7.78208 13.178 4.40039 12.6 4.40039 12.6C4.40039 14.4777 6.9076 16 10.0004 16Z" fill="#B3B3B3"/>
<ellipse cx="6.4" cy="6.78401" rx="1.4" ry="2.184" fill="#262324" fill-opacity="0.3"/>
<ellipse cx="13.1998" cy="6.78401" rx="1.4" ry="2.184" fill="#262324" fill-opacity="0.3"/>
</svg>
