<svg width="20" height="20" viewBox="0 0 20 20" fill="none" xmlns="http://www.w3.org/2000/svg">
<path d="M5.21935 20C3.81389 20 2.49756 19.4337 1.54754 18.5306C-0.294885 16.7795 -0.807938 13.7233 1.77472 11.2692L12.3706 1.19754C13.4445 0.17711 14.8108 -0.217797 16.1185 0.115884C17.4044 0.442422 18.4566 1.44346 18.8011 2.66492C19.1511 3.90985 18.737 5.20885 17.6642 6.22929L7.53027 15.8622C6.952 16.4122 6.29763 16.7377 5.6411 16.803C4.99 16.8683 4.36934 16.6703 3.93455 16.2571C3.14757 15.506 3.03453 14.0968 4.34542 12.8519L11.463 6.08642C11.7553 5.80887 12.2293 5.80887 12.5217 6.08642C12.8141 6.36398 12.8141 6.81501 12.5217 7.09257L5.40305 13.859C4.78782 14.4427 4.7313 15.0009 4.99326 15.2509C5.10848 15.3591 5.2824 15.4091 5.48349 15.3877C5.7911 15.3581 6.1422 15.1672 6.47155 14.856L16.6054 5.22416C17.3011 4.56292 17.5674 3.78535 17.3555 3.03534C17.2495 2.66857 17.0444 2.33371 16.7601 2.06322C16.4758 1.79273 16.1218 1.59577 15.7326 1.49142C14.9435 1.2904 14.1239 1.54449 13.4282 2.20573L2.83235 12.2774C0.858398 14.154 1.33123 16.3142 2.60517 17.5255C3.8802 18.7367 6.15089 19.1877 8.12593 17.3091L18.7218 7.23747C18.7909 7.17151 18.8733 7.11912 18.9642 7.08335C19.055 7.04759 19.1526 7.02917 19.2511 7.02917C19.3497 7.02917 19.4473 7.04759 19.5381 7.08335C19.629 7.11912 19.7114 7.17151 19.7805 7.23747C19.9212 7.37182 20 7.55267 20 7.74105C20 7.92944 19.9212 8.11029 19.7805 8.24464L9.18465 18.3163C7.93571 19.502 6.53677 20 5.21935 20V20Z" fill="#A5A5A8"/>
</svg>
