<svg width="17" height="17" viewBox="0 0 17 17" fill="none" xmlns="http://www.w3.org/2000/svg">
<path d="M12.0863 8.57827L8.14283 12.5217C7.14496 13.5249 5.80023 13.4289 4.9411 12.5644C4.0713 11.7 3.97525 10.3659 4.98379 9.35735L10.3734 3.96778C10.9604 3.38079 11.8355 3.27941 12.4065 3.85038C12.9774 4.42669 12.8707 5.2965 12.2837 5.87814L6.99554 11.177C6.76075 11.4171 6.48327 11.3478 6.31251 11.1877C6.15776 11.0223 6.09372 10.7448 6.32852 10.5046L10.0158 6.81732C10.2026 6.62521 10.2133 6.34773 10.0319 6.1663C9.85042 5.99554 9.57294 6.00088 9.38617 6.18764L5.68284 9.89098C5.10652 10.4673 5.12787 11.3478 5.64015 11.86C6.19511 12.415 7.0329 12.399 7.60921 11.8227L12.9241 6.50248C13.9593 5.47259 13.922 4.11186 13.0148 3.2047C12.1236 2.31889 10.7416 2.25485 9.70634 3.29008L4.28475 8.71701C2.93468 10.0724 3.0254 12.0148 4.25807 13.2475C5.4854 14.4694 7.43311 14.5655 8.78318 13.2154L12.7533 9.25063C12.9348 9.0692 12.9348 8.73835 12.748 8.5676C12.5719 8.37549 12.2731 8.40217 12.0863 8.57827Z" fill="#1C1C1E"/>
</svg>
