<svg width="89" height="94" viewBox="0 0 89 94" fill="none" xmlns="http://www.w3.org/2000/svg">
<g opacity="0.1">
<path fill-rule="evenodd" clip-rule="evenodd" d="M94.9515 94.1054C95.3008 94.1516 95.65 94.1992 95.999 94.2482L97.7535 94.4944C105.393 95.5664 112.227 89.7438 112.227 82.1639V76.3791C112.227 70.958 108.758 66.1222 103.561 64.2988C97.5555 62.1922 91.3561 60.8206 85.0979 60.1839C91.628 64.9049 95.6783 72.5499 95.6783 80.8905V88.0726C95.6783 90.1584 95.4259 92.1781 94.9515 94.1054ZM68.4844 52.4884C71.0866 53.5627 73.945 54.1563 76.9447 54.1563C89.0134 54.1563 98.797 44.5462 98.797 32.6915C98.797 20.8367 89.0134 11.2266 76.9447 11.2266C76.5871 11.2266 76.2315 11.235 75.8781 11.2517C78.0729 15.9258 79.2995 21.1448 79.2995 26.6503C79.2995 36.7635 75.1606 45.91 68.4844 52.4884Z" fill="#0F151F"/>
<path fill-rule="evenodd" clip-rule="evenodd" d="M69.6781 26.6497C69.6781 11.9315 57.7466 0 43.0284 0C28.3102 0 16.3788 11.9315 16.3788 26.6497C16.3788 41.3679 28.3102 53.2993 43.0284 53.2993C57.7466 53.2993 69.6781 41.3679 69.6781 26.6497Z" fill="#0F151F"/>
<path fill-rule="evenodd" clip-rule="evenodd" d="M10.5695 65.8917C31.5596 58.3953 54.4974 58.3953 75.4874 65.8917C81.8259 68.1554 86.0569 74.1593 86.0569 80.8899V88.072C86.0569 97.4828 77.7218 104.712 68.4056 103.381L66.2658 103.075C50.8525 100.873 35.2044 100.873 19.7911 103.075L17.6514 103.381C8.33511 104.712 0 97.4828 0 88.072V80.8899C0 74.1593 4.23106 68.1554 10.5695 65.8917Z" fill="#0F151F"/>
</g>
</svg>
